<svg width="28" height="28" viewBox="0 0 28 28" fill="none" xmlns="http://www.w3.org/2000/svg">
<path d="M0 3.70228C0 1.65757 1.65757 0 3.70228 0H20.5955C24.6849 0 28 3.31514 28 7.40457H3.70228C1.65757 7.40457 0 5.747 0 3.70228Z" fill="#A33F65"/>
<path d="M0 14.0002C0 11.9555 1.65757 10.2979 3.70228 10.2979H24.2978C26.3425 10.2979 28 11.9555 28 14.0002C28 16.0449 26.3425 17.7025 24.2978 17.7025H3.70228C1.65757 17.7025 0 16.0449 0 14.0002Z" fill="#FFBF34"/>
<path d="M0 20.5954H24.2978C26.3425 20.5954 28 22.253 28 24.2977C28 26.3424 26.3425 28 24.2978 28H7.40456C3.31513 28 0 24.6848 0 20.5954Z" fill="#4EA5F9"/>
</svg>
